<?xml version="1.0" encoding="UTF-8"?>
<svg width="188px" height="208px" viewBox="0 0 188 208" version="1.1" xmlns="http://www.w3.org/2000/svg" xmlns:xlink="http://www.w3.org/1999/xlink">
    <!-- Generator: Sketch 61 (89581) - https://sketch.com -->
    <title>Artboard</title>
    <desc>Created with Sketch.</desc>
    <g id="Artboard" stroke="none" stroke-width="1" fill="none" fill-rule="evenodd">
        <g id="Group">
            <path d="M75.2528215,130.581979 C78.8426724,130.581979 83.9005609,127.303414 83.9005609,123.713563 C83.9005609,120.123712 79.4543144,116.786307 75.8644636,116.786307 C74.4573264,116.786307 67.9637177,116.171922 63.0138834,117.877355 C60.7013793,118.674113 57.7907761,120.915911 54.2820741,124.60275 C61.3723288,124.665507 65.8004507,125.018566 67.5664398,125.661924 C69.9245213,126.520985 72.0444637,130.581979 75.2528215,130.581979 Z" id="Oval" fill="#000000"></path>
            <path d="M140.871308,130.116981 C144.461159,130.116981 149.519048,126.838416 149.519048,123.248565 C149.519048,119.658714 145.072801,116.321309 141.48295,116.321309 C140.075813,116.321309 133.582204,115.706924 128.63237,117.412357 C126.319866,118.209115 123.409263,120.450913 119.900561,124.137751 C126.990816,124.200509 131.418937,124.553567 133.184927,125.196926 C135.543008,126.055987 137.66295,130.116981 140.871308,130.116981 Z" id="Oval" fill="#000000" transform="translate(134.709804, 123.165272) scale(-1, 1) rotate(-4.000000) translate(-134.709804, -123.165272) "></path>
            <path d="M67.393493,104.195806 C75.4016219,104.195806 81.7273902,105.44875 82.2105363,100.851922 C82.5034503,98.0650316 75.3402777,96.9227424 67.3321488,96.9227424 C59.32402,96.9227424 53.1762954,99.2000873 52.9207202,101.631723 C52.665145,104.063359 59.3853641,104.195806 67.393493,104.195806 Z" id="Oval" fill="#000000" transform="translate(67.566440, 100.637253) rotate(-6.000000) translate(-67.566440, -100.637253) "></path>
            <path d="M100.525957,184.035555 C119.584351,184.035555 134.709804,170.719937 134.709804,165.693471 C134.709804,162.53186 131.776392,158.713563 129.517619,158.713563 C127.013833,158.289524 124.240303,158.253837 121.549341,158.713563 C115.402242,159.763739 108.753398,162.53186 100.900561,162.53186 C93.07813,162.53186 85.2192601,155.96313 76.4336285,157.69521 C70.5044212,158.768889 70.5044212,163.126983 70.5044212,165.693471 C70.5044212,171.392302 81.4675643,184.035555 100.525957,184.035555 Z M100.900561,164.213563 L100.900561,182.213563 M115.900561,161.213563 L120.900561,179.213563 M86.9005609,159.213563 L79.9005609,177.213563" id="Combined-Shape" stroke="#000000" stroke-width="4"></path>
            <path d="M136.170719,104.475638 C143.343346,104.474111 150.504616,105.728582 150.987762,101.131754 C151.280676,98.3448636 144.117504,97.2025744 136.109375,97.2025744 C128.101246,97.2025744 122.141508,101.29801 121.885932,103.729646 C121.630357,106.161282 128.998092,104.477164 136.170719,104.475638 Z" id="Oval" fill="#000000" transform="translate(136.437956, 101.123808) scale(-1, 1) rotate(-6.000000) translate(-136.437956, -101.123808) "></path>
            <path d="M88.9005609,142.213563 C88.9005609,142.213563 91.9422464,150.161309 100.881016,150.161309 C106.840195,150.161309 110.596975,147.51206 112.151354,142.213563" id="Path-4" stroke="#000000" stroke-width="4" stroke-linecap="round"></path>
            <path d="M124.728478,2.84217094e-14 L151.752667,22.7443302 L155.176996,17.6398102 L163.697024,33.5751737 L144.212751,61.6465935 L128.303342,57.4702216 L80.4351722,69.8239546 L85.3707816,61.6465935 L44.6344659,73.3214256 L38.5254895,86.8225011 L35.9705592,119.843108 C37.6738461,148.21951 39.3381779,163.591171 40.9635548,165.958091 C46.7471297,175.172681 69.2145594,201.80983 99.8337915,202.337485 C130.453024,202.865141 155.176996,175.84451 161.774286,167.919474 C164.418002,163.076583 165.056976,154.409118 165.934573,147.447813 C166.746077,141.010776 167.343968,129.776654 167.728247,113.745447 L161.774286,86.8225011 L148.040122,66.64783 L167.728247,38.8706006 L174.690376,61.6465935 L176.360472,73.3214256 L173.058751,110.071462 C175.259898,108.841897 177.209475,108.227114 178.907482,108.227114 C181.454491,108.227114 185.687438,111.911283 187.171968,115.213563 C188.656498,118.515843 187.155244,127.663884 185.363829,134.213563 C184.169552,138.580016 182.017436,142.318745 178.907482,145.429751 L171.514993,147.447813 C168.990496,163.442321 166.384506,172.210882 163.697024,173.753496 C155.176996,184.464288 129.209512,206.437356 99.8337915,207.830559 C80.5398814,207.099927 62.1401062,197.560928 44.6344659,179.213563 C40.9965024,175.083386 38.1085335,171.41672 35.9705592,168.213563 C35.2069928,164.450537 34.1399869,159.767664 32.7695416,154.164942 C29.4753636,154.164942 27.2813823,153.633891 26.1875976,152.571788 C19.7776749,145.156003 17.63528,140.69269 15.5243278,134.213563 C13.4133755,127.734436 15.091259,126.199937 16.5732296,122.408222 C18.0552002,118.616507 19.4043625,117.080587 23.074837,116.64888 C25.52182,116.361075 28.0299816,116.834797 30.5993218,118.070045 L27.8282747,96.019345 L26.1875976,80.4238603 L12.7385712,83.9269888 L26.1875976,61.6465935 L2.84217094e-14,66.64783 L22.9503719,44.5858145 L6.53794314,33.5751737 L38.5254895,25.7712081 L27.8282747,12.4930384 L74.1564706,12.4930384 L61.6635629,2.84217094e-14 L124.728478,9.74688439 L124.728478,2.84217094e-14 Z M30.019993,126.641169 C27.5288641,123.123686 25.3009377,121.63199 23.3362139,122.166081 C20.3891281,122.967217 20.7057297,127.205325 20.7057297,129.53157 C20.7057297,131.857816 23.7299764,144.6377 27.8882443,146.738898 C30.6604228,148.139697 32.0465121,148.139697 32.0465121,146.738898 L32.0465121,146.738898 Z M173.92708,119.794259 L171.900561,139.891988 C171.900561,141.292787 173.28665,141.292787 176.058829,139.891988 C180.217097,137.79079 181.97429,124.999037 181.97429,122.672792 C181.97429,120.346546 182.782801,116.905071 179.835715,116.103935 C177.870991,115.569844 175.901446,116.799952 173.92708,119.794259 Z" id="Path-3" fill="#000000"></path>
        </g>
    </g>
</svg>